# xmcd
#
# Track frame offsets:
#	150
#	18603
#	41852
#	55425
#	73853
#	94034
#	113125
#	134801
#	159617
#	181102
#
# Disc length: 2702 seconds
#
# Revision: 1
# Processed by: cddbd v1.5.2PL0 Copyright (c) Steve Scherf et al.
# Submitted via: EasyCDDAExtractor 7.5.0.1
#
DISCID=930a8c0a
DTITLE=Marie Carmen Koppel - Through The Rain
DYEAR=2008
DGENRE=Soul
TTITLE0=Troubled Heart
TTITLE1=Broken
TTITLE2=Through The Rain
TTITLE3=Come Home
TTITLE4=How Can We
TTITLE5=No More Talk
TTITLE6=Moving On
TTITLE7=In Need Of You
TTITLE8=Joy
TTITLE9=Your Song
EXTD=
EXTT0=
EXTT1=
EXTT2=
EXTT3=
EXTT4=
EXTT5=
EXTT6=
EXTT7=
EXTT8=
EXTT9=
PLAYORDER=
